<svg width="37" height="38" viewBox="0 0 37 38" fill="none" xmlns="http://www.w3.org/2000/svg">
<path opacity="0.1" fill-rule="evenodd" clip-rule="evenodd" d="M18.5 36.5C28.165 36.5 36 28.665 36 19C36 9.33502 28.165 1.5 18.5 1.5C8.83502 1.5 1 9.33502 1 19C1 28.665 8.83502 36.5 18.5 36.5Z" stroke="white" stroke-width="1.5"/>
<path d="M22.3333 15.1665C23.6593 15.1665 24.9311 15.6933 25.8688 16.631C26.8065 17.5687 27.3333 18.8404 27.3333 20.1665V25.9998H23.9999V20.1665C23.9999 19.7245 23.8243 19.3006 23.5118 18.988C23.1992 18.6754 22.7753 18.4998 22.3333 18.4998C21.8912 18.4998 21.4673 18.6754 21.1547 18.988C20.8422 19.3006 20.6666 19.7245 20.6666 20.1665V25.9998H17.3333V20.1665C17.3333 18.8404 17.86 17.5687 18.7977 16.631C19.7354 15.6933 21.0072 15.1665 22.3333 15.1665Z" fill="white"/>
<path d="M14.0001 16H10.6667V26H14.0001V16Z" fill="white"/>
<path d="M12.3334 13.4998C13.2539 13.4998 14.0001 12.7536 14.0001 11.8332C14.0001 10.9127 13.2539 10.1665 12.3334 10.1665C11.4129 10.1665 10.6667 10.9127 10.6667 11.8332C10.6667 12.7536 11.4129 13.4998 12.3334 13.4998Z" fill="white"/>
</svg>
