<svg width="37" height="38" viewBox="0 0 37 38" fill="none" xmlns="http://www.w3.org/2000/svg">
<path opacity="0.1" fill-rule="evenodd" clip-rule="evenodd" d="M18.5 36.5C28.165 36.5 36 28.665 36 19C36 9.33502 28.165 1.5 18.5 1.5C8.83502 1.5 1 9.33502 1 19C1 28.665 8.83502 36.5 18.5 36.5Z" stroke="white" stroke-width="1.5"/>
<path d="M23.9999 10.1665H21.4999C20.3948 10.1665 19.335 10.6055 18.5536 11.3869C17.7722 12.1683 17.3333 13.2281 17.3333 14.3332V16.8332H14.8333V20.1665H17.3333V26.8332H20.6666V20.1665H23.1666L23.9999 16.8332H20.6666V14.3332C20.6666 14.1122 20.7544 13.9002 20.9107 13.7439C21.0669 13.5876 21.2789 13.4998 21.4999 13.4998H23.9999V10.1665Z" fill="white"/>
</svg>
