<svg xmlns="http://www.w3.org/2000/svg" width="28.12" height="28.12" viewBox="0 0 28.12 28.12"><defs><style>.a{fill:#fff;fill-rule:evenodd;}</style></defs><path class="a" d="M135.5,218c3.417,0,3.914.018,5.354.084a10.342,10.342,0,0,1,3.412.654,7.178,7.178,0,0,1,4.113,4.113,10.341,10.341,0,0,1,.654,3.412c.067,1.5.084,1.978.084,5.8v.112c0,3.716-.017,4.2-.084,5.684a10.34,10.34,0,0,1-.654,3.412,7.178,7.178,0,0,1-4.113,4.113,10.341,10.341,0,0,1-3.412.654c-1.5.068-1.978.084-5.8.084h-.112c-3.716,0-4.2-.017-5.684-.084a10.341,10.341,0,0,1-3.412-.654,7.178,7.178,0,0,1-4.112-4.113,10.341,10.341,0,0,1-.654-3.412c-.066-1.44-.084-1.939-.084-5.354v-.886c0-3.417.018-3.914.084-5.354a10.342,10.342,0,0,1,.654-3.412,7.179,7.179,0,0,1,4.112-4.113,10.342,10.342,0,0,1,3.412-.654c1.44-.066,1.939-.084,5.354-.084Zm-.114,2.534h-.658c-3.453,0-3.914.015-5.353.082a7.807,7.807,0,0,0-2.611.484,4.654,4.654,0,0,0-2.669,2.669,7.769,7.769,0,0,0-.484,2.611c-.066,1.438-.082,1.9-.082,5.353v.658c0,3.453.015,3.914.082,5.353a7.805,7.805,0,0,0,.484,2.611,4.654,4.654,0,0,0,2.669,2.669,7.769,7.769,0,0,0,2.611.484c1.482.068,1.926.082,5.682.082h.112c3.651,0,4.1-.014,5.568-.082a7.807,7.807,0,0,0,2.612-.484,4.654,4.654,0,0,0,2.669-2.669,7.77,7.77,0,0,0,.484-2.611c.067-1.483.082-1.926.082-5.682v-.112c0-3.651-.014-4.1-.082-5.568a7.809,7.809,0,0,0-.484-2.612,4.654,4.654,0,0,0-2.669-2.669,7.77,7.77,0,0,0-2.611-.484C139.3,220.549,138.842,220.534,135.389,220.534Zm-.329,4.307a7.22,7.22,0,1,1-5.105,2.115A7.222,7.222,0,0,1,135.06,224.84Zm0,2.534a4.685,4.685,0,1,0,3.314,1.372A4.686,4.686,0,0,0,135.06,227.374Zm7.505-4.506a1.685,1.685,0,1,1-1.194.494A1.691,1.691,0,0,1,142.565,222.868Z" transform="translate(-121 -218)"/></svg>