<svg width="37" height="37" viewBox="0 0 37 37" fill="none" xmlns="http://www.w3.org/2000/svg">
<path opacity="0.1" fill-rule="evenodd" clip-rule="evenodd" d="M18.5 36C28.165 36 36 28.165 36 18.5C36 8.83502 28.165 1 18.5 1C8.83502 1 1 8.83502 1 18.5C1 28.165 8.83502 36 18.5 36Z" stroke="white" stroke-width="1.5"/>
<path d="M27.0335 27.8744H10.9398C8.83996 27.8744 7.13184 26.1662 7.13184 24.0664V13.9064C7.13184 11.8068 8.84023 10.0984 10.9398 10.0984H27.0335C29.1331 10.0984 30.8412 11.8068 30.8412 13.9064V24.0664C30.8412 26.1662 29.1331 27.8744 27.0335 27.8744ZM10.9398 11.2119C9.45404 11.2119 8.24539 12.4206 8.24539 13.9064V24.0664C8.24539 25.5522 9.45404 26.7611 10.9398 26.7611H27.0335C28.5193 26.7611 29.7279 25.5522 29.7279 24.0664V13.9064C29.7279 12.4206 28.5193 11.2119 27.0335 11.2119H10.9398Z" fill="white"/>
<path d="M10.0413 13.9593C12.8875 16.7328 15.7337 19.506 18.5799 22.2794C19.1104 22.7963 19.9247 21.9839 19.3933 21.466C16.5472 18.6927 13.701 15.9193 10.8548 13.1461C10.3242 12.6289 9.50996 13.4416 10.0413 13.9593Z" fill="white"/>
<path d="M19.3933 22.2794C22.2395 19.5062 25.0857 16.7327 27.9318 13.9595C28.4629 13.4419 27.6492 12.6289 27.1183 13.146C24.2722 15.9192 21.426 18.6927 18.5798 21.4659C18.0487 21.9836 18.8625 22.7965 19.3933 22.2794Z" fill="white"/>
<path d="M27.9005 24.2425C26.0066 22.4464 24.1125 20.6506 22.2186 18.8544C21.6815 18.3452 20.8667 19.1571 21.4051 19.6679C23.299 21.464 25.1931 23.2599 27.087 25.056C27.6241 25.5652 28.4389 24.7531 27.9005 24.2425Z" fill="white"/>
<path d="M10.9376 25.0559C12.8314 23.2597 14.7255 21.4639 16.6194 19.6678C17.1576 19.1572 16.3433 18.3448 15.8059 18.8543C13.912 20.6504 12.0179 22.4462 10.1241 24.2424C9.58586 24.7529 10.4001 25.5656 10.9376 25.0559Z" fill="white"/>
</svg>
