<svg width="37" height="37" viewBox="0 0 37 37" fill="none" xmlns="http://www.w3.org/2000/svg">
<path opacity="0.1" fill-rule="evenodd" clip-rule="evenodd" d="M18.5 36C28.165 36 36 28.165 36 18.5C36 8.83502 28.165 1 18.5 1C8.83502 1 1 8.83502 1 18.5C1 28.165 8.83502 36 18.5 36Z" stroke="white" stroke-width="1.5"/>
<g clip-path="url(#clip0_205_4023)">
<path d="M22.8372 9.76001C20.3466 9.76001 18.3213 11.8982 18.3213 14.5276C18.3213 14.6856 18.3587 14.8402 18.3733 14.9948C15.2938 14.6839 12.5706 13.1176 10.7209 10.7218C10.6347 10.6067 10.5013 10.5449 10.3614 10.5552C10.2232 10.5655 10.0995 10.6496 10.0312 10.7767C9.64239 11.4826 9.41952 12.295 9.41952 13.1674C9.41952 14.2236 9.77741 15.1906 10.3305 15.984C10.2232 15.9342 10.106 15.9067 10.0052 15.8466C9.87665 15.7745 9.7221 15.7779 9.59684 15.8569C9.47158 15.9359 9.39512 16.0785 9.39349 16.2313V16.2863C9.39349 17.9058 10.1874 19.3124 11.3586 20.1746C11.3456 20.1729 11.3326 20.178 11.3196 20.1746C11.1764 20.1488 11.0317 20.2021 10.9357 20.3171C10.8397 20.4322 10.8088 20.5919 10.8511 20.7379C11.3164 22.2647 12.5039 23.4308 13.9745 23.8568C12.8032 24.5918 11.4449 25.0246 9.97914 25.0246C9.66191 25.0246 9.3577 25.0075 9.05512 24.9697C8.85991 24.9422 8.67283 25.0624 8.60776 25.2582C8.54106 25.454 8.61426 25.6721 8.78182 25.7803C10.6608 27.0529 12.8911 27.8 15.289 27.8C19.1753 27.8 22.2239 26.086 24.2688 23.6369C26.3137 21.1879 27.3792 18.0072 27.3792 15.036C27.3792 14.9106 27.3695 14.7887 27.3662 14.665C28.1292 14.0485 28.8108 13.3254 29.3444 12.4804C29.4501 12.3173 29.4387 12.0992 29.3167 11.948C29.1963 11.7969 28.993 11.7505 28.8238 11.8347C28.6091 11.936 28.3585 11.9463 28.1341 12.027C28.4301 11.6097 28.6839 11.1597 28.8368 10.6531C28.8889 10.4796 28.8319 10.289 28.6969 10.1756C28.5619 10.064 28.3732 10.0503 28.2252 10.1447C27.5142 10.5895 26.7269 10.9021 25.8956 11.0927C25.0887 10.2959 24.0264 9.76001 22.8372 9.76001ZM22.8372 10.6393C23.8995 10.6393 24.8593 11.1185 25.5312 11.8759C25.6321 11.9858 25.7801 12.0322 25.9216 11.9996C26.465 11.8862 26.9807 11.7196 27.4833 11.5049C27.1938 11.9171 26.8359 12.2692 26.4162 12.5354C26.2258 12.6333 26.1364 12.8651 26.2063 13.0764C26.2746 13.2859 26.4829 13.4079 26.6895 13.3598C27.1059 13.3065 27.4768 13.1279 27.8738 13.0163C27.5175 13.4233 27.1271 13.7908 26.7025 14.1154C26.587 14.2047 26.5235 14.349 26.5333 14.5001C26.5398 14.6788 26.5463 14.8557 26.5463 15.036C26.5463 17.7839 25.5475 20.7671 23.6441 23.0461C21.7408 25.3252 18.946 26.9207 15.289 26.9207C13.628 26.9207 12.0598 26.5325 10.6429 25.849C12.3998 25.7064 14.0201 25.0504 15.328 23.9667C15.4647 23.8516 15.5183 23.6593 15.463 23.4841C15.4077 23.3089 15.2548 23.1887 15.0807 23.1835C13.7077 23.1578 12.5576 22.3145 11.9443 21.1226C11.9671 21.1226 11.9866 21.1226 12.0094 21.1226C12.4209 21.1226 12.8276 21.0676 13.2067 20.9577C13.3889 20.901 13.5141 20.7224 13.5076 20.5215C13.5011 20.3206 13.3661 20.1488 13.1806 20.1059C11.6986 19.7899 10.5876 18.5155 10.3305 16.932C10.7502 17.0849 11.1797 17.2051 11.645 17.2206C11.8353 17.2326 12.0077 17.1072 12.0663 16.9166C12.1249 16.726 12.0533 16.5164 11.8922 16.4099C10.9031 15.7109 10.2524 14.5208 10.2524 13.1674C10.2524 12.6659 10.3761 12.2056 10.5387 11.766C12.621 14.179 15.5362 15.7814 18.8288 15.9565C18.959 15.9634 19.0859 15.9067 19.1705 15.802C19.2551 15.6955 19.2876 15.5547 19.2583 15.4207C19.1949 15.1356 19.1542 14.8333 19.1542 14.5276C19.1542 12.374 20.7973 10.6393 22.8372 10.6393Z" fill="white"/>
</g>
<defs>
<clipPath id="clip0_205_4023">
<rect width="20" height="22" fill="white" transform="translate(9 8)"/>
</clipPath>
</defs>
</svg>
