<svg width="37" height="38" viewBox="0 0 37 38" fill="none" xmlns="http://www.w3.org/2000/svg">
<path opacity="0.1" fill-rule="evenodd" clip-rule="evenodd" d="M18.5 36.5C28.165 36.5 36 28.665 36 19C36 9.33502 28.165 1.5 18.5 1.5C8.83502 1.5 1 9.33502 1 19C1 28.665 8.83502 36.5 18.5 36.5Z" stroke="white" stroke-width="1.5"/>
<path d="M14 12V22" stroke="white" stroke-width="2" stroke-linecap="round" stroke-linejoin="round"/>
<path d="M24 17C25.3807 17 26.5 15.8807 26.5 14.5C26.5 13.1193 25.3807 12 24 12C22.6193 12 21.5 13.1193 21.5 14.5C21.5 15.8807 22.6193 17 24 17Z" stroke="white" stroke-width="2" stroke-linecap="round" stroke-linejoin="round"/>
<path d="M14 27C15.3807 27 16.5 25.8807 16.5 24.5C16.5 23.1193 15.3807 22 14 22C12.6193 22 11.5 23.1193 11.5 24.5C11.5 25.8807 12.6193 27 14 27Z" stroke="white" stroke-width="2" stroke-linecap="round" stroke-linejoin="round"/>
<path d="M24 17C24 18.9891 23.2098 20.8968 21.8033 22.3033C20.3968 23.7098 18.4891 24.5 16.5 24.5" stroke="white" stroke-width="2" stroke-linecap="round" stroke-linejoin="round"/>
</svg>
